<?xml version="1.0" encoding="UTF-8"?>
<svg width="192px" height="179px" viewBox="0 0 192 179" version="1.1" xmlns="http://www.w3.org/2000/svg" xmlns:xlink="http://www.w3.org/1999/xlink">
    <!-- Generator: Sketch 52.6 (67491) - http://www.bohemiancoding.com/sketch -->
    <title>Oval 2</title>
    <desc>Created with Sketch.</desc>
    <g id="Page-1" stroke="none" stroke-width="1" fill="none" fill-rule="evenodd">
        <g id="8-confirm" transform="translate(-622.000000, -190.000000)">
            <g id="box-confirm" transform="translate(445.000000, 121.000000)">
                <g id="Oval-2" transform="translate(177.000000, 63.000000)">
                    <g id="Group" transform="translate(120.000000, 113.422078) rotate(-40.000000) translate(-120.000000, -113.422078) translate(53.000000, 66.000000)">
                        <path d="M109.735558,31.2132987 C109.637234,30.2143896 108.255468,29.2398442 107.456688,30.2692078 C103.863922,34.8956883 101.138675,38.1891299 94.7475714,38.5284805 C94.5048052,38.5415325 94.2637792,38.5354416 94.0218831,38.5371818 C93.7973896,38.5215195 93.5737662,38.504987 93.3501429,38.4893247 C93.2231039,38.1456234 92.9629351,37.8489091 92.5087273,37.7149091 C92.125,37.6017922 91.7508442,37.5078182 91.3792987,37.4242857 C87.7569481,36.293987 83.9675325,36.675974 81.1413506,39.2480779 C78.5727273,41.1910779 77.291026,44.9744026 75.1792208,47.5830519 C73.6625844,48.6298182 72.0110779,49.5234416 70.1263766,50.1795195 C69.7644026,50.0002727 69.4172208,50.0333377 69.1309481,50.1995325 C68.4661688,50.0594416 67.7631039,49.8105844 67.0113117,49.4225065 C65.4816234,48.6359091 64.1311818,50.9408831 65.6626104,51.7283506 C67.1496623,52.4931948 68.4652987,52.8951948 69.6573766,53.0318052 C74.0202078,55.5264675 78.4378571,51.0000519 80.3982597,47.2437013 C80.5165974,47.0183377 80.5496623,46.8008052 80.5470519,46.591974 C81.9366494,45.0292208 83.4793896,43.3872857 85.1317662,42.1386494 C86.5004805,41.4042597 88.0406104,40.9491818 89.8548312,40.9665844 C98.0183896,41.0396753 110.925026,43.4038182 109.735558,31.2132987" id="Fill-46" fill="#EC2A5E"></path>
                        <path d="M104.997701,39.7266494 C101.412766,42.3352987 96.942039,40.5567532 93.197,39.6657403 C90.7841299,39.0914545 87.5176623,38.7747273 85.2657662,40.0781818 C82.905974,41.4434156 81.5363896,43.2558961 80.2016104,45.6043766 C79.4637403,46.9043506 78.8041818,48.2443506 78.0523896,49.5391039 C74.7632987,55.2088701 69.9845455,53.2458571 65.7618052,51.3080779 C66.0724416,50.7398831 66.3595844,50.1690779 66.6336753,49.5887013 C71.7161039,53.6522078 76.3860909,47.456013 79.5742468,42.9896364 C81.7565325,39.9311299 83.2392338,36.7447143 88.0989091,37.8141039 C90.7623766,38.4005714 92.667961,39.4690909 95.4584675,39.3951299 C100.504351,39.2611299 104.647039,34.4867273 107.327909,30.7747532 C107.338351,30.759961 107.344442,30.7442987 107.354013,30.7295065 C110.730117,33.6087662 107.374896,37.9968312 104.997701,39.7266494 Z M107.517597,27.6118312 C106.419494,27.0305844 105.428416,28.0695195 105.525,28.9953377 C105.339662,29.0893117 105.166506,29.2267922 105.022935,29.4260519 C103.071234,32.1286753 101.317922,33.8993896 98.4717273,35.6761948 C94.4673896,38.1769481 90.945974,35.7092597 87.2496623,34.8956883 C85.5041818,34.5110909 83.0504156,35.0244675 81.6895325,36.2174156 C78.296026,39.1923896 72.4287403,52.3226494 67.2810519,46.5154026 C66.8207532,45.9959351 66.2482078,46.0046364 65.7948701,46.2691558 C65.3876494,46.3683506 65.0134935,46.6198182 64.8264156,47.1044805 C64.2590909,48.5488961 63.5621169,49.9263117 62.7363636,51.2367273 C62.3987532,51.8171039 62.551026,52.7620649 63.2149351,53.0631299 C67.3680649,54.9521818 74.0097662,58.1890649 77.9236104,53.9123766 C79.8727013,51.7831688 81.163974,49.5034286 82.5083247,46.9513377 C86.0836883,40.1634545 92.0936753,42.3309481 98.1288961,43.5273766 C106.917208,45.2702468 118.046169,33.1928442 107.517597,27.6118312 Z" id="Fill-47" fill="#303E5C"></path>
                        <path d="M120.496455,79.4628701 C120.384208,79.5142078 120.227584,79.502026 120.057909,79.5028961 C120.047468,79.5028961 120.040506,79.508987 120.027455,79.508987 C119.611532,78.8355065 118.689195,78.4752727 118.000922,79.2261948 C112.690519,85.0221299 101.593753,78.4274156 96.4817403,75.0939481 C91.4941558,71.8414026 87.3758312,68.9778052 81.4928831,69.7757143 C80.8411558,68.9621429 79.240987,69.2623377 79.1087273,70.6005974 L79.1087273,73.0482727 C79.1087273,73.874026 79.7247792,74.2934286 80.3643247,74.3264935 C80.7611039,74.5953636 81.2797013,74.6484416 81.7852468,74.4239481 C83.4880909,73.6660649 85.7295455,73.9706104 87.4332597,74.5588182 C88.1371948,74.8015844 88.6497013,74.4483117 88.8950779,73.9358052 C98.1436883,77.9697273 108.971584,88.1563377 117.277844,83.260987 C117.611974,83.6421039 118.149714,83.8735584 118.630896,83.683 C119.956974,83.1626623 121.176896,82.6814805 122.115766,81.559013 C123.112065,80.3686753 121.891273,78.8285455 120.496455,79.4628701" id="Fill-48" fill="#FDB151"></path>
                        <path d="M80.9220779,73.2901688 C80.9890779,72.4287403 80.8646494,71.5725325 80.5601039,70.7563506 C89.4406494,68.3269481 98.7162338,77.3153896 106.66574,80.6505974 C111.023351,82.4778701 116.137974,83.2757792 119.001571,79.7439221 C119.315688,80.4626494 119.552364,81.2066104 119.693325,81.9888571 C107.635935,89.5642078 94.4760909,70.912974 80.9220779,73.2901688 Z M120.097065,76.1572468 C119.26261,74.8781558 117.337883,75.8031039 117.601532,77.043039 C114.677026,83.8300519 102.118442,75.6282078 98.4769481,73.4537532 C92.2868442,69.7557013 86.3194935,65.767026 78.9755974,68.4217922 C78.8259351,68.4757403 78.7162987,68.561013 78.6057922,68.6462857 C77.7139091,68.7185065 76.889026,69.6338831 77.5102987,70.6066883 C78.2185844,71.7161039 78.5292208,72.7637403 78.0428182,74.0289091 C77.9079481,74.3795714 77.9444935,74.6771558 78.0602208,74.926013 C77.9923506,75.7752597 78.6475584,76.6819351 79.6856234,76.3391039 C94.4943636,71.4376623 106.360325,93.103026 120.701805,84.4930909 C121.490143,84.7663117 122.530818,84.3651818 122.507325,83.2862208 C122.449896,80.6566883 121.524078,78.3395325 120.097065,76.1572468 Z" id="Fill-49" fill="#303E5C"></path>
                        <path d="M124.162312,51.2958961 C123.821221,51.0244156 123.464468,50.7703377 123.094662,50.5354026 C122.259338,50.0028831 121.041156,50.6911558 121.086403,51.6874545 C121.341351,57.4485844 113.209117,58.8155584 109.07426,56.7672727 C108.305065,56.3852857 107.581987,56.7716234 107.244377,57.3485195 C106.627455,57.5486494 106.091455,58.129026 106.223714,58.9425974 C106.838026,62.758987 113.105571,62.5005584 115.889117,62.283026 C121.162104,61.8714545 123.094662,58.8094675 125.081169,54.7442208 C125.457065,54.4649091 125.718974,54.0167922 125.684169,53.4964545 C125.723325,53.4146623 125.76074,53.3346104 125.799896,53.2528182 C126.377662,52.0442078 125.103792,50.9739481 124.162312,51.2958961" id="Fill-50" fill="#80CDD7"></path>
                        <path d="M120.358104,60.2512727 C117.159506,62.7024286 112.082299,60.9787013 108.153662,60.3243636 C108.125818,59.5142727 108.064039,58.7146234 107.962234,57.9158442 C109.491052,57.8444935 111.120805,58.2873896 112.586104,58.4779481 C114.497779,58.7241948 116.203234,58.4118182 117.955675,57.6574156 C120.579987,56.527987 121.911286,53.6130519 122.852766,50.9957013 C123.54974,51.4446883 124.191896,52.0067922 124.830571,52.5471429 C123.811649,55.4002987 122.867558,58.3291558 120.358104,60.2512727 Z M126.22887,50.3022078 C124.95326,49.2711039 123.742039,48.1956234 122.107935,47.7292338 C120.920208,47.3898831 120.239766,48.6106753 120.546052,49.5069091 C119.420974,52.7246494 118.004403,55.5691039 114.187143,55.9171558 C111.739468,56.1399091 109.356182,55.0418052 106.920688,55.3524416 C106.139312,55.0922727 105.099506,55.6465455 105.105597,56.6454545 C105.104727,56.6680779 105.107338,56.6898312 105.107338,56.7115844 C105.110818,56.789026 105.093416,56.8568961 105.109948,56.9386883 C105.442338,58.4962208 105.498896,59.9110519 105.507597,61.4807662 C105.511078,62.2595325 106.115818,62.7476753 106.843247,62.8155455 C111.924805,63.2915065 116.955896,65.3171688 121.706805,62.5571169 C125.42661,60.3957143 126.49513,55.5116753 127.937805,51.8205844 C128.391143,50.6615714 127.175571,49.9950519 126.22887,50.3022078 Z" id="Fill-51" fill="#303E5C"></path>
                        <path d="M64.0215455,82.671039 C64.011974,82.6692987 64.0032727,82.6675584 63.9937013,82.6649481 C66.3743766,77.076974 63.536013,69.0987532 61.7705195,63.9345325 C58.9460779,55.6709091 54.142961,47.3046104 46.3135325,42.9687532 C45.2293506,42.3674935 44.2461039,43.3907662 44.3296364,44.3235455 C42.853026,45.3868442 41.7557922,46.7712208 40.6063506,48.3148312 C37.2432987,52.8308052 33.5722208,56.3644026 29.2598571,59.9780519 C20.8622338,67.0113117 13.0101818,74.6571429 4.4132987,81.4563377 C3.54751948,82.1411299 4.02087013,83.153961 4.82225974,83.5176753 C4.99454545,84.1659221 5.57057143,84.6645065 6.37979221,84.3556104 C9.92557143,83.0051688 13.8394156,83.6603766 17.5244156,84.0040779 C22.733013,84.4904805 28.0695195,83.8117792 33.2859481,83.6064286 C38.1717273,83.4158701 42.9461299,83.7369481 47.8075455,84.1728831 C52.2695714,84.5731429 56.8186104,84.1345974 61.2440909,84.8324416 C61.4885974,84.9499091 61.7635584,85.0073377 62.0385195,84.9847143 C62.464013,85.0656364 62.8895065,85.1404675 63.3115195,85.2466234 C64.9821688,85.6677662 65.6904545,83.0921818 64.0215455,82.671039" id="Fill-52" fill="#80CDD7"></path>
                        <path d="M20.5446364,67.8805714 C19.8433117,67.3106364 18.9844935,67.5716753 18.5268052,68.1024545 C17.5522597,68.2573377 16.9614416,69.8514156 18.0360519,70.644974 C21.6035844,73.2814675 21.6253377,78.3865195 21.8254675,82.4004286 C21.8541818,82.9494805 22.2083247,83.5881558 22.8061039,83.6882208 C23.9555455,83.8796494 24.3705974,83.8796494 25.520039,83.6882208 C26.1360909,83.5846753 26.4475974,82.9503506 26.5006753,82.4004286 C27.0218831,76.8794545 24.8691818,71.3993766 20.5446364,67.8805714" id="Fill-53" fill="#EC2A5E"></path>
                        <path d="M31.6248701,57.2119091 C30.0742987,56.4870909 28.7168961,58.7885844 30.2761688,59.5168831 C38.0472987,63.1479351 42.4701688,75.6612727 38.2552597,83.2844805 C37.4208052,84.7932857 39.7275195,86.1402468 40.5611039,84.6331818 C45.4434026,75.8031039 40.7577532,61.479026 31.6248701,57.2119091" id="Fill-54" fill="#EC2A5E"></path>
                        <path d="M56.923026,75.6604026 C57.372013,70.5014026 56.3757143,65.3406623 53.9088961,60.3382857 C51.5691169,55.5925974 46.5597792,48.869974 41.097974,47.7292338 C39.4177532,47.3785714 38.7033766,49.9532857 40.3888182,50.3048182 C45.0057273,51.2689221 48.6393896,56.9508701 50.9852597,60.6141169 C53.1658052,64.0189351 54.2578182,67.9336494 54.4196623,71.9040519 C53.8697403,72.1363766 53.4677403,72.6671558 53.6983247,73.4076364 C53.9698052,74.2716753 54.156013,75.1209221 54.2586883,75.957987 C53.9602338,78.5605455 53.2902338,81.1195974 52.2765325,83.5072338 C51.6039221,85.0891299 53.5477922,86.2577143 54.5815065,84.8550649 C56.6724286,82.0201818 57.3372078,78.9094675 56.923026,75.6604026" id="Fill-55" fill="#EC2A5E"></path>
                        <path d="M62.7903117,84.9821039 C61.1022597,84.9003117 59.4150779,84.8176494 57.7278961,84.7358571 C62.9425844,71.0461039 56.6097792,54.0167922 43.6779091,46.6015455 C44.4723377,45.8532338 45.2667662,45.1040519 46.0620649,44.3566104 C47.8902078,45.4381818 49.8314675,46.2091169 51.4794935,47.7483766 C54.4414156,50.5162597 56.4044286,54.3535325 58.1934156,57.934987 C62.3439351,66.2403766 65.6895844,75.9223117 62.7903117,84.9821039 Z M40.9187273,49.198013 C41.1562727,48.9743896 41.3955584,48.7498961 41.6331039,48.5254026 C53.9724156,55.1705844 60.4522727,71.8483636 54.9086753,84.5983766 C54.2978442,84.5679221 53.687013,84.5383377 53.0770519,84.5087532 C58.8921299,72.3521688 52.4958052,55.6665584 40.9187273,49.198013 Z M50.4066234,83.8674675 C50.1864805,83.9570909 50.0046234,84.1224156 49.8671429,84.3521299 C47.5256234,84.2381429 45.1832338,84.1232857 42.8417143,84.0092987 C46.069026,74.0088961 41.2659091,62.8355584 33.3416364,56.3313377 C35.181961,54.598039 37.0222857,52.8664805 38.8634805,51.1340519 C49.8392987,56.8099091 56.2103896,72.5940649 50.4066234,83.8674675 Z M40.0616494,83.8735584 C39.8667403,83.863987 39.6700909,83.8544156 39.4760519,83.8448442 C43.2524156,75.8614026 37.0275065,64.1407532 30.4327922,59.0696364 C30.7564805,58.7642208 31.0801688,58.4596753 31.4038571,58.1542597 C38.9574545,64.0389481 43.288961,74.6388701 40.0616494,83.8735584 Z M36.515,83.7004026 C33.5008701,83.5524805 30.4867403,83.4054286 27.4726104,83.2583766 C28.2374545,80.5087662 27.7510519,76.9655974 27.4760909,74.530974 C27.1289091,71.4742078 24.7682468,68.5618831 23.007974,66.0585195 C24.8248052,64.3495844 26.6407662,62.6397792 28.4567273,60.9291039 C34.2248182,65.063961 41.1388701,77.0943766 36.515,83.7004026 Z M24.7734675,83.126987 C24.0738831,83.0930519 23.3751688,83.0591169 22.6755844,83.0243117 C23.6875455,78.6127532 22.2318182,72.9003506 18.5102727,70.2934416 L21.0284286,67.9223377 C22.177,69.6208312 23.289026,71.3462987 24.2670519,73.1465974 C25.2642208,74.9790909 25.8785325,80.7541429 24.7734675,83.126987 Z M19.9425065,82.8911818 C15.2481558,82.6614675 10.5520649,82.4326234 5.85771429,82.2037792 C9.41219481,78.8572597 12.9666753,75.5124805 16.5211558,72.165961 C19.9329351,73.8992597 20.8700649,79.3192987 19.9425065,82.8911818 Z M62.2838961,60.6802468 C60.6698052,56.6437143 58.6780779,52.8499481 56.2138701,49.2667532 C53.5077662,45.332026 50.5397532,44.467987 47.1253636,41.9759351 C46.6798571,41.1040649 45.4094675,40.5706753 44.4636364,41.4616883 C29.9577013,55.1166364 15.4508961,68.7724545 0.944961039,82.4282727 C0.0417662338,83.2775195 0.520337662,84.4017273 1.37132468,84.8672468 C1.59494805,85.0116883 1.85598701,85.1239351 2.19620779,85.1395974 C22.317961,86.1228442 42.4397143,87.1034805 62.5632078,88.0858571 C63.0295974,88.3773506 63.717,88.4051948 64.2234156,88.0606234 C65.1535844,87.8056753 65.5181688,86.8293896 65.2484286,86.0419221 C68.2590779,77.3528052 65.6408571,69.0778701 62.2838961,60.6802468 Z" id="Fill-56" fill="#303E5C"></path>
                        <path d="M63.0522208,36.0547013 C62.4944675,35.4960779 61.7348442,35.6031039 61.164039,36.0547013 C59.965,37.0066234 58.6998312,37.8732727 57.6043377,38.9487532 C56.3722338,40.1556234 58.2621558,42.0429351 59.4925195,40.8369351 C60.5888831,39.7623247 61.8523117,38.8948052 63.0522208,37.9428831 C63.6247662,37.4904156 63.522961,36.5254416 63.0522208,36.0547013" id="Fill-57" fill="#303E5C"></path>
                        <path d="M73.0143377,63.0382987 C72.0441429,63.0557013 71.0896104,63.2436494 70.1202857,63.2610519 C68.4009091,63.2915065 68.3974286,65.9628052 70.1202857,65.9314805 C71.0896104,65.9140779 72.0441429,65.727 73.0143377,65.7087273 C74.7337143,65.6782727 74.7371948,63.0078442 73.0143377,63.0382987" id="Fill-58" fill="#303E5C"></path>
                        <path d="M89.9279221,91.7482338 C88.5113506,91.7195195 87.1835325,91.2948961 85.8313506,90.9059481 C84.1737532,90.4273766 83.4698182,93.0047013 85.1230649,93.4815325 C86.7058312,93.9374805 88.2685844,94.3855974 89.9279221,94.4186623 C91.6516494,94.4534675 91.649039,91.7821688 89.9279221,91.7482338" id="Fill-59" fill="#303E5C"></path>
                        <path d="M97.042974,49.8671429 C96.2929221,50.3735584 95.568974,50.9191299 94.8180519,51.4255455 C93.3988701,52.3826883 94.7345195,54.6981039 96.1658831,53.7313896 C96.9168052,53.224974 97.6398831,52.6794026 98.3916753,52.172987 C99.8108571,51.2158442 98.4752078,48.9004286 97.042974,49.8671429" id="Fill-60" fill="#303E5C"></path>
                        <path d="M95.0538571,21.6035844 C94.3647143,21.1998442 93.6694805,21.5061299 93.2265844,22.0812857 C92.9229091,22.4754545 92.8315455,22.9348831 92.8211039,23.423026 C92.7854286,25.1467532 95.4567273,25.1432727 95.4924026,23.423026 C95.4558571,23.4552208 95.468039,23.456961 95.5324286,23.429987 C95.9779351,22.8513506 95.6211818,21.9351039 95.0538571,21.6035844" id="Fill-61" fill="#303E5C"></path>
                        <path d="M119.299156,40.2974545 C118.32287,40.7864675 117.379649,41.3041948 116.58174,42.0638182 C115.330494,43.2532857 117.223026,45.137987 118.469922,43.952 C119.094675,43.3577013 119.883883,42.9861558 120.647857,42.6032987 C122.187117,41.8323636 120.834065,39.5291299 119.299156,40.2974545" id="Fill-62" fill="#303E5C"></path>
                        <path d="M133.367416,77.9436234 C132.942792,77.1709481 132.267571,76.6218961 131.553195,76.1294026 C130.952805,75.7152208 130.073104,76.0154156 129.725922,76.607974 C129.337844,77.2718831 129.607584,78.0228052 130.204494,78.4352468 C130.550805,78.6736623 130.859701,78.9251299 131.062442,79.2914545 C131.892545,80.8002597 134.197519,79.4532987 133.367416,77.9436234" id="Fill-63" fill="#303E5C"></path>
                        <path d="M49.874974,33.8428312 C49.2989481,33.5052208 48.3435455,33.6566234 48.0477013,34.3222727 C47.9058701,34.6398701 47.8188571,35.1271429 47.5891429,35.3873117 C46.4536234,36.6733636 48.3348442,38.5693766 49.4773247,37.2754935 C49.9237013,36.7699481 50.0872857,36.2678831 50.3535455,35.6701039 C50.6493896,35.0053247 50.5528052,34.2404805 49.874974,33.8428312" id="Fill-64" fill="#303E5C"></path>
                        <path d="M77.7347922,25.5174286 C76.8394286,28.1565325 75.7665584,30.7112338 74.5318442,33.2093766 C73.7713506,34.7486364 76.0737143,36.1016883 76.8368182,34.5580779 C78.1724675,31.8545844 79.3419221,29.0823506 80.3103766,26.2265844 C80.8655195,24.5916104 78.2847143,23.8955065 77.7347922,25.5174286" id="Fill-65" fill="#303E5C"></path>
                        <path d="M107.119948,68.3260779 C105.761675,66.7172078 104.150195,65.2284156 102.078416,64.6436883 C100.417338,64.1755584 99.7134026,66.7528831 101.36926,67.2192727 C102.984221,67.6752208 104.180649,68.9708442 105.230896,70.2142597 C106.342922,71.5316364 108.222403,69.633013 107.119948,68.3260779" id="Fill-66" fill="#303E5C"></path>
                        <path d="M74.8337792,91.964026 C73.7495974,90.356026 72.4783377,88.9211818 70.7946364,87.9248831 C69.3093247,87.0443117 67.9667143,89.3536364 69.4468052,90.2298571 C70.7311169,90.9903506 71.7013117,92.0858442 72.5288052,93.3127273 C73.4859481,94.7319091 75.8004935,93.3971299 74.8337792,91.964026" id="Fill-67" fill="#303E5C"></path>
                        <path d="M78.5727273,0.343701299 L77.9932208,0.343701299 C76.8707532,0.343701299 76.8707532,2.08309091 77.9932208,2.08309091 L78.5727273,2.08309091 C79.6951948,2.08309091 79.6951948,0.343701299 78.5727273,0.343701299" id="Fill-132" fill="#303E5C"></path>
                    </g>
                    <g id="Group" transform="translate(50.000000, 126.344156) scale(-1, 1) rotate(-20.000000) translate(-50.000000, -126.344156) translate(-7.000000, 86.000000)">
                        <path d="M93.3571169,26.5545974 C93.2734675,25.7047792 92.0979351,24.8756883 91.4183766,25.7514156 C88.3618442,29.6873766 86.0433506,32.4892597 80.6061429,32.777961 C80.3996104,32.7890649 80.1945584,32.7838831 79.9887662,32.7853636 C79.7977792,32.772039 79.6075325,32.757974 79.4172857,32.7446494 C79.3092078,32.4522468 79.0878701,32.1998182 78.7014545,32.0858182 C78.375,31.9895844 78.0566883,31.9096364 77.7405974,31.8385714 C74.6588961,30.876974 71.4350649,31.2019481 69.0307013,33.3901558 C66.8454545,35.0431558 65.7550519,38.2618052 63.9584416,40.4811039 C62.6681688,41.3716364 61.2631558,42.1318831 59.6597532,42.690039 C59.3518052,42.5375455 59.0564416,42.5656753 58.8128961,42.7070649 C58.2473377,42.5878831 57.6492078,42.3761688 57.0096234,42.046013 C55.7082468,41.3768182 54.5593636,43.3377662 55.8622208,44.0077013 C57.1273247,44.6583896 58.2465974,45.0003896 59.2607532,45.1166104 C62.9724156,47.2389351 66.7307143,43.3881039 68.3985195,40.1924026 C68.4991948,40.0006753 68.5273247,39.8156104 68.5251039,39.6379481 C69.7072987,38.3084416 71.0197792,36.9115714 72.4255325,35.8492987 C73.589961,35.2245195 74.9002208,34.8373636 76.4436623,34.8521688 C83.3887792,34.9143506 94.3690519,36.9256364 93.3571169,26.5545974" id="Fill-46" fill="#EC2A5E"></path>
                        <path d="M89.3264026,33.7972987 C86.2765325,36.0165974 82.4730779,34.5035065 79.287,33.7454805 C77.2342597,33.2569091 74.4553247,32.9874545 72.5395325,34.0963636 C70.5319481,35.2578312 69.3667792,36.7997922 68.2312208,38.7977532 C67.6034805,39.9037013 67.0423636,41.0437013 66.4027792,42.1452078 C63.6045974,46.9687403 59.5390909,45.2987143 55.9466104,43.6501558 C56.2108831,43.1667662 56.4551688,42.6811558 56.6883506,42.1874026 C61.0122078,45.6444156 64.9851818,40.373026 67.6974935,36.5732727 C69.5540649,33.9712597 70.8154675,31.2604286 74.9498182,32.1702078 C77.2157532,32.6691429 78.8369221,33.5781818 81.2109351,33.5152597 C85.5037013,33.4012597 89.0280779,29.3394545 91.3088182,26.1815065 C91.3177013,26.1689221 91.3228831,26.1555974 91.331026,26.143013 C94.2032338,28.5925325 91.3487922,32.3256623 89.3264026,33.7972987 Z M91.4701948,23.4906623 C90.535987,22.9961688 89.6928312,23.880039 89.775,24.6676753 C89.6173247,24.7476234 89.470013,24.8645844 89.3478701,25.0341039 C87.6874675,27.3333506 86.1958442,28.8397792 83.7744545,30.3513896 C80.3677792,32.4788961 77.3719481,30.3795195 74.2273247,29.6873766 C72.7423636,29.3601818 70.6548312,29.7969351 69.4970649,30.8118312 C66.6100519,33.3427792 61.6184805,44.5132987 57.2391039,39.5728052 C56.8475065,39.1308701 56.3604156,39.1382727 55.9747403,39.3633117 C55.6282987,39.4477013 55.309987,39.6616364 55.1508312,40.073961 C54.6681818,41.3027922 54.0752338,42.4746234 53.3727273,43.5894545 C53.0855065,44.0832078 53.2150519,44.8871299 53.7798701,45.1432597 C57.3131299,46.7503636 62.9635325,49.5041299 66.2932208,45.8657532 C67.9514026,44.0543377 69.0499481,42.1148571 70.1936494,39.9436753 C73.2353766,34.1689091 78.3483506,36.0128961 83.4827922,37.0307532 C90.9594156,38.5134935 100.427338,28.2386883 91.4701948,23.4906623 Z" id="Fill-47" fill="#303E5C"></path>
                        <path d="M102.511909,67.6027403 C102.416416,67.6464156 102.283169,67.6360519 102.138818,67.6367922 C102.129935,67.6367922 102.124013,67.641974 102.112909,67.641974 C101.759065,67.069013 100.97439,66.7625455 100.388844,67.4013896 C95.871039,72.3322597 86.4305065,66.7218312 82.0814805,63.8858961 C77.8383117,61.1188052 74.3346623,58.6826104 69.3297662,59.3614286 C68.7753117,58.6692857 67.413974,58.9246753 67.3014545,60.0631948 L67.3014545,62.1455455 C67.3014545,62.8480519 67.8255584,63.2048571 68.3696494,63.232987 C68.7072078,63.4617273 69.1484026,63.5068831 69.5784935,63.3158961 C71.0271818,62.6711299 72.9340909,62.9302208 74.3835195,63.4306364 C74.9823896,63.6371688 75.4184026,63.3366234 75.6271558,62.9006104 C83.4953766,66.3324545 92.7071688,74.9986753 99.7736883,70.833974 C100.057948,71.1582078 100.515429,71.3551169 100.924792,71.193 C102.052948,70.7503247 103.090792,70.340961 103.889532,69.386026 C104.73713,68.3733506 103.698545,67.0630909 102.511909,67.6027403" id="Fill-48" fill="#FDB151"></path>
                        <path d="M68.8441558,62.3513377 C68.9011558,61.6184805 68.7952987,60.8900649 68.5362078,60.1957013 C76.0912987,58.1288961 83.9824675,65.7757792 90.7454805,68.6131948 C94.4527013,70.1677403 98.8039481,70.8465584 101.240143,67.8418442 C101.507377,68.4532987 101.708727,69.0862208 101.828649,69.7517143 C91.5708701,76.1964156 80.3751818,60.3289481 68.8441558,62.3513377 Z M102.17213,64.7904935 C101.462221,63.7023117 99.8247662,64.4892078 100.049065,65.5440779 C97.5610519,71.3181039 86.8768831,64.3404156 83.7788961,62.4905065 C78.5126883,59.3444026 73.435987,55.9510519 67.1881948,58.2095844 C67.0608701,58.2554805 66.9675974,58.328026 66.8735844,58.4005714 C66.1148182,58.462013 65.4130519,59.2407662 65.9415974,60.0683766 C66.5441688,61.0122078 66.8084416,61.9034805 66.3946364,62.9798182 C66.2798961,63.2781429 66.310987,63.5313117 66.4094416,63.743026 C66.3517013,64.4655195 66.9091169,65.2368701 67.7922468,64.9452078 C80.3907273,60.7753247 90.4856494,79.2070519 102.68661,71.8821818 C103.357286,72.1146234 104.242636,71.7733636 104.222649,70.8554416 C104.173792,68.6183766 103.386156,66.6470649 102.17213,64.7904935 Z" id="Fill-49" fill="#303E5C"></path>
                        <path d="M105.630623,43.6397922 C105.340442,43.4088312 105.036935,43.1926753 104.722325,42.9928052 C104.011675,42.5397662 102.975312,43.1253117 103.013805,43.9729091 C103.230701,48.8741688 96.3122338,50.0371169 92.7945195,48.2945455 C92.1401299,47.9695714 91.524974,48.2982468 91.2377532,48.789039 C90.7129091,48.9592987 90.2569091,49.4530519 90.3694286,50.1451948 C90.8920519,53.391974 96.2241429,53.1721169 98.5922338,52.9870519 C103.078208,52.6369091 104.722325,50.0319351 106.412338,46.5734416 C106.73213,46.3358182 106.954948,45.9545844 106.925338,45.5119091 C106.958649,45.4423247 106.990481,45.3742208 107.023792,45.3046364 C107.515325,44.2764156 106.431584,43.3658961 105.630623,43.6397922" id="Fill-50" fill="#80CDD7"></path>
                        <path d="M102.394208,51.2585455 C99.673013,53.3438571 95.3535974,51.8774026 92.0113247,51.3207273 C91.9876364,50.6315455 91.9350779,49.9512468 91.8484675,49.2716883 C93.1491039,49.210987 94.5356104,49.5877792 95.7822078,49.7498961 C97.4085584,49.9593896 98.8594675,49.6936364 100.350351,49.0518312 C102.582974,48.090974 103.715571,45.6111039 104.516532,43.3844026 C105.109481,43.7663766 105.655792,44.2445844 106.199143,44.7042857 C105.332299,47.1315974 104.529117,49.6233117 102.394208,51.2585455 Z M107.38874,42.7944156 C106.303519,41.9172078 105.273078,41.0022468 103.88287,40.6054675 C102.872416,40.3167662 102.293532,41.3553506 102.554104,42.1178182 C101.596948,44.8552987 100.391805,47.2752078 97.1442857,47.5713117 C95.0619351,47.7608182 93.0343636,46.8266104 90.9623766,47.0908831 C90.2976234,46.8695455 89.413013,47.3410909 89.4181948,48.1909091 C89.4174545,48.2101558 89.4196753,48.2286623 89.4196753,48.2471688 C89.4226364,48.3130519 89.4078312,48.3707922 89.4218961,48.4403766 C89.7046753,49.7654416 89.7527922,50.9691039 89.7601948,52.3045325 C89.7631558,52.9670649 90.2776364,53.3823506 90.8964935,53.4400909 C95.2196104,53.845013 99.4997922,55.5683377 103.54161,53.2202338 C106.706221,51.3814286 107.61526,47.2263506 108.84261,44.0861688 C109.228286,43.1001429 108.194143,42.5331039 107.38874,42.7944156 Z" id="Fill-51" fill="#303E5C"></path>
                        <path d="M54.4660909,70.3320779 C54.4579481,70.3305974 54.4505455,70.3291169 54.4424026,70.3268961 C56.4677532,65.5729481 54.053026,58.7855065 52.551039,54.3920649 C50.1481558,47.3618182 46.0619221,40.2442208 39.4010649,36.5555065 C38.4787013,36.043987 37.6422078,36.9145325 37.7132727,37.7080909 C36.4570519,38.6126883 35.5235844,39.7904416 34.5457013,41.1036623 C31.6845974,44.9456104 28.5614416,47.9518052 24.8927143,51.0261039 C17.7484675,57.0096234 11.0683636,63.5142857 3.7545974,69.2986753 C3.01803896,69.8812597 3.42074026,70.7429221 4.10251948,71.0523506 C4.24909091,71.6038442 4.73914286,72.028013 5.42758442,71.7652208 C8.44414286,70.6163377 11.7738312,71.1737532 14.9088312,71.4661558 C19.340026,71.879961 23.880039,71.3025584 28.3178961,71.1278571 C32.4744545,70.9657403 36.5362597,71.2388961 40.6720909,71.6097662 C44.4681429,71.9502857 48.3382208,71.5771948 52.1031818,72.1708831 C52.3111948,72.2708182 52.5451169,72.3196753 52.779039,72.3004286 C53.141026,72.3692727 53.503013,72.4329351 53.862039,72.5232468 C55.2833377,72.8815325 55.8859091,70.6903636 54.4660909,70.3320779" id="Fill-52" fill="#80CDD7"></path>
                        <path d="M17.4782727,57.7491429 C16.8816234,57.2642727 16.150987,57.4863506 15.7616104,57.9379091 C14.9325195,58.0696753 14.4298831,59.4258312 15.3441039,60.1009481 C18.3791688,62.3439351 18.3976753,66.687039 18.5679351,70.1018571 C18.5923636,70.568961 18.8936494,71.1123117 19.4022078,71.1974416 C20.3800909,71.3602987 20.7331948,71.3602987 21.7110779,71.1974416 C22.2351818,71.1093506 22.5001948,70.5697013 22.5453506,70.1018571 C22.9887662,65.4049091 21.1573636,60.7427532 17.4782727,57.7491429" id="Fill-53" fill="#EC2A5E"></path>
                        <path d="M26.9047403,48.6728182 C25.5855974,48.0561818 24.4307922,50.0141688 25.7573377,50.6337662 C32.3685974,53.7228701 36.1313377,64.3685455 32.5455195,70.853961 C31.8356104,72.1375714 33.798039,73.2834935 34.5072078,72.0013636 C38.6608052,64.4892078 34.6745065,52.3030519 26.9047403,48.6728182" id="Fill-54" fill="#EC2A5E"></path>
                        <path d="M48.4270519,64.3678052 C48.809026,59.9788052 47.9614286,55.5883247 45.8627922,51.3325714 C43.8722338,47.2951948 39.6105584,41.5759481 34.9639481,40.6054675 C33.5345065,40.3071429 32.9267532,42.4975714 34.3606364,42.7966364 C38.2884545,43.6168442 41.3797792,48.4507403 43.3755195,51.5672338 C45.2306104,54.4638701 46.1596364,57.7942987 46.2973247,61.1721039 C45.8294805,61.3697532 45.4874805,61.8213117 45.6836494,62.4512727 C45.9146104,63.1863506 46.073026,63.9088442 46.1603766,64.620974 C45.9064675,66.8350909 45.3364675,69.0121948 44.4740649,71.0434675 C43.9018442,72.3892597 45.5555844,73.3834286 46.435013,72.1901299 C48.2138571,69.7783636 48.7794156,67.1319351 48.4270519,64.3678052" id="Fill-55" fill="#EC2A5E"></path>
                        <path d="M53.4186234,72.2982078 C51.9825195,72.2286234 50.5471558,72.1582987 49.1117922,72.0887143 C53.5481688,60.4422078 48.1605584,45.9545844 37.1588182,39.6460909 C37.8346753,39.0094675 38.5105325,38.3721039 39.1871299,37.7362208 C40.7424156,38.6563636 42.3939351,39.3122338 43.795987,40.6217532 C46.3158312,42.9765195 47.9858571,46.2410649 49.5078312,49.287974 C53.0388701,56.3537532 55.8851688,64.5906234 53.4186234,72.2982078 Z M34.8114545,41.855026 C35.0135455,41.6647792 35.2171169,41.4737922 35.4192078,41.2828052 C45.9168312,46.9361688 51.4295455,61.1247273 46.7133506,71.9717532 C46.1936883,71.9458442 45.674026,71.9206753 45.1551039,71.8955065 C50.1022597,61.5533377 44.6606104,47.3581169 34.8114545,41.855026 Z M42.8832468,71.3499351 C42.695961,71.4261818 42.5412468,71.5668312 42.4242857,71.7622597 C40.4322468,71.6652857 38.4394675,71.5675714 36.4474286,71.4705974 C39.1930519,62.9627922 35.1068182,53.4571169 28.3652727,47.9236753 C29.9309221,46.4490779 31.4965714,44.975961 33.062961,43.5021039 C42.4005974,48.3308182 47.8207792,61.7591299 42.8832468,71.3499351 Z M34.0822987,71.3551169 C33.9164805,71.346974 33.7491818,71.3388312 33.5841039,71.3306883 C36.7968312,64.5388052 31.501013,54.5675065 25.8905844,50.2532727 C26.165961,49.9934416 26.4413377,49.7343506 26.7167143,49.4745195 C33.1429091,54.4808961 36.8279221,63.4987403 34.0822987,71.3551169 Z M31.065,71.2078052 C28.5007403,71.081961 25.9364805,70.9568571 23.3722208,70.8317532 C24.0229091,68.4925325 23.6091039,65.4781948 23.3751818,63.4069481 C23.0798182,60.8064156 21.0714935,58.3287662 19.5739481,56.199039 C21.1196104,54.7451688 22.6645325,53.2905584 24.2094545,51.8352078 C29.1166364,55.3529221 34.9987403,65.5877532 31.065,71.2078052 Z M21.0759351,70.719974 C20.4807662,70.6911039 19.8863377,70.6622338 19.2911688,70.6326234 C20.1520909,66.8795065 18.9136364,62.0197013 15.7475455,59.8018831 L17.8898571,57.7846753 C18.867,59.2296623 19.8130519,60.6975974 20.6451039,62.2291948 C21.4934416,63.7881818 22.0160649,68.7012857 21.0759351,70.719974 Z M16.966013,70.5193636 C12.9723117,70.3239351 8.97712987,70.1292468 4.98342857,69.9345584 C8.00738961,67.0875195 11.0313506,64.241961 14.0553117,61.3949221 C16.9578701,62.8695195 17.7551299,67.4805974 16.966013,70.5193636 Z M52.9877922,51.6234935 C51.6146104,48.1894286 49.9201558,44.9618961 47.8237403,41.9135065 C45.5215325,38.5660519 42.9965065,37.830974 40.0917273,35.7108701 C39.7127143,34.9691299 38.6319351,34.5153506 37.8272727,35.2733766 C25.4864026,46.8902727 13.1447922,58.5079091 0.803922078,70.1255455 C0.0355324675,70.848039 0.442675325,71.8044545 1.16664935,72.2004935 C1.3568961,72.3233766 1.57897403,72.4188701 1.86841558,72.4321948 C18.9869221,73.2686883 36.1054286,74.102961 53.2254156,74.9387143 C53.6221948,75.1867013 54.207,75.2103896 54.6378312,74.9172468 C55.4291688,74.7003506 55.7393377,73.8697792 55.5098571,73.1998442 C58.0711558,65.8076104 55.8437143,58.7677403 52.9877922,51.6234935 Z" id="Fill-56" fill="#303E5C"></path>
                        <path d="M53.6414416,30.6734026 C53.1669351,30.1981558 52.5206883,30.2892078 52.0350779,30.6734026 C51.015,31.4832468 49.9386623,32.2205455 49.0066753,33.1355065 C47.9584675,34.1622468 49.5663117,35.7678701 50.613039,34.7418701 C51.5457662,33.8276494 52.6206234,33.0896104 53.6414416,32.2797662 C54.1285325,31.8948312 54.0419221,31.0738831 53.6414416,30.6734026" id="Fill-57" fill="#303E5C"></path>
                        <path d="M62.1166753,53.6295974 C61.2912857,53.6444026 60.4792208,53.8042987 59.6545714,53.8191039 C58.1918182,53.845013 58.1888571,56.1176104 59.6545714,56.090961 C60.4792208,56.0761558 61.2912857,55.917 62.1166753,55.9014545 C63.5794286,55.8755455 63.5823896,53.6036883 62.1166753,53.6295974" id="Fill-58" fill="#303E5C"></path>
                        <path d="M76.5058442,78.0544675 C75.3007013,78.030039 74.1710649,77.6687922 73.0207013,77.3378961 C71.6105065,76.9307532 71.0116364,79.1234026 72.4181299,79.5290649 C73.7646623,79.916961 75.0941688,80.2981948 76.5058442,80.3263247 C77.9722987,80.3559351 77.9700779,78.0833377 76.5058442,78.0544675" id="Fill-59" fill="#303E5C"></path>
                        <path d="M82.5589481,42.4242857 C81.9208442,42.8551169 81.3049481,43.3192597 80.6661039,43.7500909 C79.4587403,44.5643766 80.595039,46.5342078 81.8127662,45.7117792 C82.4516104,45.2809481 83.0667662,44.8168052 83.7063506,44.385974 C84.9137143,43.5716883 83.7774156,41.6018571 82.5589481,42.4242857" id="Fill-60" fill="#303E5C"></path>
                        <path d="M80.8667143,18.3791688 C80.2804286,18.0356883 79.688961,18.2962597 79.3121688,18.7855714 C79.0538182,19.1209091 78.9760909,19.5117662 78.9672078,19.9270519 C78.9368571,21.3935065 81.2094545,21.3905455 81.2398052,19.9270519 C81.2087143,19.9544416 81.2190779,19.9559221 81.2738571,19.932974 C81.6528701,19.4407013 81.3493636,18.6612078 80.8667143,18.3791688" id="Fill-61" fill="#303E5C"></path>
                        <path d="M101.493312,34.2829091 C100.66274,34.6989351 99.8602987,35.1393896 99.1814805,35.7856364 C98.116987,36.7975714 99.7270519,38.400974 100.787844,37.392 C101.319351,36.8864026 101.990766,36.5703117 102.640714,36.2445974 C103.950234,35.5887273 102.79913,33.6292597 101.493312,34.2829091" id="Fill-62" fill="#303E5C"></path>
                        <path d="M42.4309481,28.7916623 C41.9408961,28.5044416 41.1280909,28.6332468 40.8764026,29.1995455 C40.7557403,29.4697403 40.6817143,29.8842857 40.4862857,30.1056234 C39.5202468,31.1997273 41.1206883,32.8127532 42.0926494,31.711987 C42.4724026,31.2818961 42.6115714,30.8547662 42.8380909,30.3462078 C43.0897792,29.7806494 43.0076104,29.129961 42.4309481,28.7916623" id="Fill-64" fill="#303E5C"></path>
                        <path d="M66.1325844,21.7088571 C65.3708571,23.9540649 64.4581169,26.1274675 63.4076883,28.2527532 C62.7607013,29.5622727 64.7194286,30.7133766 65.3686364,29.4001558 C66.5049351,27.1001688 67.4998442,24.7417013 68.3237532,22.3121688 C68.796039,20.9212208 66.6004286,20.329013 66.1325844,21.7088571" id="Fill-65" fill="#303E5C"></path>
                        <path d="M91.1318961,58.1281558 C89.9763506,56.7594156 88.6053896,55.4928312 86.8428312,54.9953766 C85.4296753,54.5971169 84.8308052,56.7897662 86.2395195,57.1865455 C87.6134416,57.5744416 88.6312987,58.6766883 89.5247922,59.7345195 C90.4708442,60.8552727 92.0698052,59.240026 91.1318961,58.1281558" id="Fill-66" fill="#303E5C"></path>
                        <path d="M63.6645584,78.2380519 C62.7421948,76.8700519 61.6606753,75.6493636 60.2282727,74.8017662 C58.9646494,74.0526234 57.8224286,76.0172727 59.0816104,76.7627143 C60.1742338,77.4097013 60.9996234,78.3416883 61.7036104,79.3854545 C62.5178961,80.5928182 64.486987,79.4572597 63.6645584,78.2380519" id="Fill-67" fill="#303E5C"></path>
                        <path d="M66.8454545,0.292402597 L66.3524416,0.292402597 C65.3975065,0.292402597 65.3975065,1.77218182 66.3524416,1.77218182 L66.8454545,1.77218182 C67.8003896,1.77218182 67.8003896,0.292402597 66.8454545,0.292402597" id="Fill-132" fill="#303E5C"></path>
                    </g>
                    <g id="Group-2" transform="translate(-32.000000, -32.000000)">
                        <path d="M69.859,157.292 C69.859,159.234 68.287,160.806 66.347,160.806 C64.405,160.806 62.833,159.234 62.833,157.292 C62.833,155.352 64.405,153.78 66.347,153.78 C68.287,153.78 69.859,155.352 69.859,157.292" id="Fill-35" fill="#F2BDB7"></path>
                        <path d="M72.396,80.765 C79.348,83.761 86.451,86.273 93.656,88.3 C88.161,94.017 82.247,99.488 75.931,104.664 C74.281,96.665 73.105,88.683 72.396,80.765" id="Fill-74" fill="#FF7886"></path>
                        <path d="M76.269,102.197 C74.909,95.515 73.884,88.843 73.189,82.214 C79.119,84.718 85.155,86.871 91.267,88.673 C86.559,93.371 81.556,97.888 76.269,102.197 Z M95.01,86.874 C94.826,86.638 94.581,86.433 94.21,86.33 C87.349,84.4 80.588,82.001 73.958,79.179 C73.834,78.943 73.654,78.724 73.334,78.574 C66.804,75.47 63.36,69.56 62.146,62.609 C61.806,60.662 58.848,61.49 59.186,63.425 C60.392,70.324 63.851,76.445 69.761,80.087 C70.422,88.265 71.583,96.517 73.251,104.792 C72.846,105.63 73.593,106.636 74.567,106.962 C75.528,107.326 76.741,107.021 76.959,106.119 C83.517,100.744 89.638,95.056 95.305,89.105 C96.042,88.326 95.687,87.378 95.01,86.874 Z" id="Fill-75" fill="#303E5C"></path>
                        <path d="M96.429,89.054 C103.66,90.956 110.984,92.373 118.356,93.304 C113.794,99.773 108.788,106.064 103.35,112.134 C100.573,104.476 98.266,96.767 96.429,89.054" id="Fill-76" fill="#80CDD7"></path>
                        <path d="M116.066,94.031 C112.129,99.376 107.878,104.589 103.326,109.642 C101.022,103.244 99.052,96.808 97.414,90.365 C103.574,91.937 109.801,93.158 116.066,94.031 Z M119.478,91.693 C119.264,91.488 118.994,91.322 118.614,91.273 C110.897,90.298 103.231,88.785 95.676,86.734 C94.657,86.456 93.954,87.111 93.774,87.886 C93.697,88.119 93.66,88.373 93.728,88.671 C95.557,96.683 97.895,104.697 100.744,112.662 C100.471,113.552 101.348,114.433 102.35,114.609 C103.344,114.826 104.489,114.339 104.571,113.414 C110.218,107.117 115.396,100.581 120.094,93.855 C120.706,92.976 120.219,92.093 119.478,91.693 Z" id="Fill-77" fill="#303E5C"></path>
                        <path d="M142.678,94.617 C150.095,94.486 157.504,93.869 164.858,92.765 C162.217,100.23 159.109,107.64 155.535,114.955 C150.799,108.335 146.51,101.54 142.678,94.617" id="Fill-78" fill="#80CDD7"></path>
                        <path d="M162.85,94.085 C160.509,100.298 157.838,106.468 154.838,112.566 C150.898,107.029 147.276,101.367 143.974,95.611 C150.282,95.453 156.584,94.945 162.85,94.085 Z M165.501,90.91 C165.24,90.771 164.935,90.683 164.554,90.742 C156.856,91.894 149.097,92.511 141.333,92.589 C140.286,92.597 139.792,93.419 139.832,94.212 C139.82,94.458 139.851,94.712 139.997,94.982 C143.899,102.195 148.296,109.275 153.179,116.167 C153.158,117.101 154.237,117.712 155.246,117.609 C156.259,117.546 157.224,116.771 157.053,115.857 C160.767,108.267 163.979,100.574 166.682,92.826 C167.033,91.814 166.324,91.095 165.501,90.91 Z" id="Fill-79" fill="#303E5C"></path>
                        <path d="M120.333,93.542 C127.712,94.386 135.135,94.746 142.55,94.619 C138.962,101.673 134.913,108.611 130.413,115.392 C126.588,108.206 123.227,100.908 120.333,93.542" id="Fill-80" fill="#FF7886"></path>
                        <path d="M140.392,95.664 C137.262,101.513 133.809,107.281 130.035,112.931 C126.858,106.923 124.009,100.837 121.486,94.697 C127.771,95.369 134.082,95.691 140.392,95.664 Z M143.43,92.865 C143.19,92.693 142.899,92.566 142.516,92.572 C134.753,92.705 126.983,92.298 119.264,91.353 C118.221,91.226 117.623,91.974 117.559,92.767 C117.514,93.009 117.512,93.265 117.622,93.55 C120.55,101.214 123.983,108.81 127.917,116.289 C127.775,117.205 128.764,117.955 129.777,117.984 C130.787,118.056 131.847,117.415 131.797,116.486 C136.473,109.449 140.659,102.242 144.346,94.917 C144.825,93.962 144.218,93.156 143.43,92.865 Z" id="Fill-81" fill="#303E5C"></path>
                        <path d="M186.509,88.058 C193.706,85.994 200.799,83.445 207.74,80.41 C207.07,88.333 205.934,96.32 204.326,104.331 C197.98,99.185 192.035,93.746 186.509,88.058" id="Fill-82" fill="#80CDD7"></path>
                        <path d="M203.025,102.206 C197.74,97.896 192.738,93.376 188.029,88.681 C194.142,86.876 200.179,84.726 206.107,82.222 C205.412,88.853 204.385,95.521 203.025,102.206 Z M220.095,63.009 C216.838,67.988 213.673,75.847 207.819,78.437 C207.545,78.388 207.248,78.39 206.92,78.535 C206.428,78.748 205.931,78.941 205.439,79.15 C205.385,79.16 205.335,79.179 205.282,79.187 C204.982,79.232 204.769,79.353 204.594,79.501 C198.069,82.24 191.42,84.572 184.675,86.451 C183.656,86.732 183.388,87.654 183.63,88.412 C183.683,88.65 183.78,88.888 183.992,89.111 C189.657,95.062 195.777,100.749 202.334,106.124 C202.553,107.029 203.765,107.335 204.727,106.972 C205.701,106.646 206.448,105.638 206.043,104.798 C207.644,96.861 208.766,88.947 209.44,81.095 C215.718,78.093 219.184,70.005 222.744,64.56 C223.831,62.898 221.172,61.361 220.095,63.009 Z" id="Fill-83" fill="#303E5C"></path>
                        <path d="M164.531,92.816 C171.887,91.726 179.188,90.154 186.386,88.095 C184.709,95.845 182.563,103.601 179.944,111.318 C174.375,105.369 169.233,99.185 164.531,92.816" id="Fill-84" fill="#FF7886"></path>
                        <path d="M184.552,89.665 C183.015,96.134 181.146,102.603 178.942,109.04 C174.306,104.058 169.972,98.915 165.948,93.634 C172.2,92.662 178.412,91.339 184.552,89.665 Z M186.791,86.167 C186.512,86.066 186.195,86.021 185.823,86.124 C178.289,88.281 170.64,89.898 162.934,90.976 C161.894,91.121 161.508,91.998 161.649,92.783 C161.67,93.025 161.735,93.273 161.913,93.523 C166.719,100.171 172.005,106.624 177.754,112.83 C177.853,113.751 179.004,114.22 179.996,113.99 C180.997,113.794 181.859,112.898 181.571,112.013 C184.296,104.005 186.509,95.955 188.215,87.914 C188.435,86.865 187.635,86.244 186.791,86.167 Z" id="Fill-85" fill="#303E5C"></path>
                        <path d="M25.008,43.537 C31.96,46.535 39.063,49.046 46.268,51.072 C40.773,56.79 34.859,62.259 28.543,67.439 C26.894,59.439 25.717,51.456 25.008,43.537" id="Fill-86" fill="#FDB151"></path>
                        <path d="M28.88,64.972 C27.521,58.287 26.496,51.617 25.801,44.988 C31.731,47.492 37.767,49.644 43.879,51.447 C39.17,56.144 34.168,60.662 28.88,64.972 Z M47.622,49.648 C47.438,49.41 47.193,49.206 46.823,49.101 C39.961,47.173 33.201,44.773 26.57,41.953 C26.447,41.716 26.266,41.498 25.946,41.345 C19.417,38.244 15.973,32.333 14.758,25.382 C14.417,23.435 11.46,24.263 11.798,26.197 C13.003,33.097 16.463,39.218 22.373,42.859 C23.034,51.039 24.195,59.29 25.863,67.566 C25.458,68.404 26.206,69.41 27.179,69.736 C28.14,70.099 29.353,69.794 29.571,68.89 C36.129,63.515 42.25,57.828 47.917,51.878 C48.654,51.099 48.299,50.152 47.622,49.648 Z" id="Fill-87" fill="#303E5C"></path>
                        <path d="M49.042,51.828 C56.272,53.73 63.596,55.146 70.968,56.076 C66.406,62.546 61.4,68.837 55.962,74.906 C53.185,67.248 50.878,59.54 49.042,51.828" id="Fill-88" fill="#80CDD7"></path>
                        <path d="M68.678,56.804 C64.741,62.15 60.491,67.361 55.937,72.417 C53.634,66.015 51.664,59.58 50.026,53.138 C56.186,54.71 62.414,55.931 68.678,56.804 Z M72.09,54.466 C71.876,54.259 71.606,54.093 71.226,54.046 C63.509,53.072 55.843,51.558 48.288,49.507 C47.269,49.23 46.565,49.884 46.387,50.66 C46.309,50.892 46.272,51.146 46.34,51.445 C48.169,59.456 50.507,67.47 53.356,75.433 C53.083,76.324 53.96,77.205 54.962,77.382 C55.956,77.597 57.101,77.113 57.183,76.185 C62.83,69.89 68.008,63.355 72.706,56.628 C73.318,55.749 72.831,54.865 72.09,54.466 Z" id="Fill-89" fill="#303E5C"></path>
                        <path d="M95.29,57.39 C102.707,57.259 110.116,56.642 117.47,55.539 C114.83,63.003 111.721,70.414 108.147,77.728 C103.411,71.109 99.122,64.314 95.29,57.39" id="Fill-90" fill="#80CDD7"></path>
                        <path d="M115.462,56.859 C113.121,63.072 110.45,69.242 107.45,75.339 C103.51,69.802 99.888,64.14 96.586,58.384 C102.894,58.226 109.196,57.718 115.462,56.859 Z M118.113,53.683 C117.852,53.544 117.546,53.456 117.166,53.513 C109.469,54.667 101.708,55.285 93.945,55.361 C92.898,55.371 92.403,56.193 92.444,56.986 C92.432,57.23 92.463,57.486 92.608,57.755 C96.511,64.968 100.908,72.048 105.791,78.941 C105.77,79.873 106.849,80.484 107.857,80.382 C108.871,80.32 109.836,79.544 109.665,78.63 C113.378,71.04 116.59,63.347 119.294,55.599 C119.645,54.587 118.936,53.867 118.113,53.683 Z" id="Fill-91" fill="#303E5C"></path>
                        <path d="M72.944,56.314 C80.324,57.16 87.747,57.519 95.162,57.392 C91.575,64.445 87.525,71.384 83.024,78.165 C79.2,70.98 75.838,63.683 72.944,56.314" id="Fill-92" fill="#FDB151"></path>
                        <path d="M93.004,58.437 C89.873,64.289 86.42,70.054 82.647,75.705 C79.47,69.699 76.621,63.611 74.099,57.47 C80.382,58.142 86.693,58.464 93.004,58.437 Z M96.042,55.638 C95.802,55.464 95.512,55.339 95.128,55.345 C87.365,55.478 79.596,55.072 71.876,54.126 C70.833,53.999 70.235,54.748 70.17,55.54 C70.125,55.781 70.124,56.039 70.233,56.324 C73.162,63.988 76.595,71.583 80.529,79.06 C80.387,79.978 81.376,80.726 82.389,80.757 C83.399,80.83 84.459,80.187 84.409,79.257 C89.085,72.222 93.271,65.017 96.957,57.691 C97.437,56.734 96.831,55.929 96.042,55.638 Z" id="Fill-93" fill="#303E5C"></path>
                        <path d="M139.122,50.831 C146.318,48.767 153.411,46.216 160.352,43.181 C159.682,51.105 158.545,59.093 156.938,67.103 C150.592,61.956 144.647,56.519 139.122,50.831" id="Fill-94" fill="#80CDD7"></path>
                        <path d="M155.637,64.978 C150.353,60.669 145.35,56.15 140.641,51.453 C146.754,49.65 152.791,47.498 158.719,44.996 C158.024,51.626 156.998,58.294 155.637,64.978 Z M172.707,25.783 C169.45,30.761 166.285,38.619 160.431,41.21 C160.157,41.16 159.86,41.164 159.532,41.308 C159.04,41.521 158.542,41.712 158.051,41.923 C157.997,41.933 157.948,41.951 157.894,41.958 C157.594,42.003 157.381,42.124 157.206,42.275 C150.681,45.011 144.033,47.345 137.287,49.224 C136.268,49.505 136,50.427 136.242,51.185 C136.295,51.423 136.392,51.662 136.604,51.884 C142.269,57.835 148.389,63.523 154.946,68.898 C155.165,69.802 156.377,70.109 157.339,69.744 C158.313,69.417 159.06,68.412 158.655,67.574 C160.255,59.634 161.378,51.72 162.053,43.869 C168.331,40.867 171.795,32.777 175.356,27.331 C176.443,25.669 173.784,24.134 172.707,25.783 Z" id="Fill-95" fill="#303E5C"></path>
                        <path d="M117.144,55.587 C124.499,54.498 131.8,52.927 138.999,50.867 C137.321,58.619 135.175,66.374 132.556,74.091 C126.987,68.142 121.845,61.958 117.144,55.587" id="Fill-96" fill="#FDB151"></path>
                        <path d="M137.164,52.439 C135.626,58.908 133.758,65.374 131.555,71.812 C126.917,66.833 122.583,61.687 118.56,56.406 C124.812,55.433 131.024,54.113 137.164,52.439 Z M139.403,48.941 C139.125,48.837 138.807,48.792 138.435,48.898 C130.901,51.052 123.252,52.669 115.546,53.749 C114.506,53.894 114.121,54.771 114.261,55.554 C114.282,55.798 114.347,56.046 114.525,56.296 C119.332,62.945 124.617,69.398 130.366,75.601 C130.465,76.527 131.616,76.994 132.608,76.761 C133.609,76.568 134.471,75.671 134.183,74.787 C136.908,66.779 139.122,58.728 140.827,50.685 C141.047,49.636 140.247,49.017 139.403,48.941 Z" id="Fill-97" fill="#303E5C"></path>
                        <g id="Group-129" transform="translate(0.000000, 117.000000)" fill="#303E5C">
                            <path d="M110.301,66.728 L109.634,66.728 C108.344,66.728 108.344,68.728 109.634,68.728 L110.301,68.728 C111.59,68.728 111.59,66.728 110.301,66.728" id="Fill-126"></path>
                        </g>
                        <path d="M186.967,148.394 C186.423,148.356 185.967,148.877 185.967,149.394 C185.967,149.841 186.247,150.169 186.626,150.313 C186.627,150.323 186.627,150.323 186.628,150.333 C186.636,150.464 186.634,150.596 186.634,150.728 C186.636,152.018 188.636,152.018 188.634,150.728 C188.632,149.563 188.305,148.488 186.967,148.394" id="Fill-135" fill="#303E5C"></path>
                    </g>
                </g>
            </g>
        </g>
    </g>
</svg>